<svg width="240" height="80" viewBox="0 0 240 80" fill="none" xmlns="http://www.w3.org/2000/svg">
<path d="M51.1662 28.3139C48.9718 23.7742 45.9208 19.0967 42.1003 14.4038C35.6344 6.45742 29.2595 1.27081 28.9904 1.05263L27.6904 0L26.3904 1.05263C26.1213 1.27081 19.7464 6.45742 13.2805 14.4C9.46007 19.0928 6.40905 23.7742 4.21458 28.31C1.41749 34.09 0 39.6708 0 44.8919C0 52.3024 2.90321 59.0737 8.17523 63.9617C12.8143 68.2641 18.9429 70.8172 25.6097 71.2536V77.9407H29.7712V71.2536C36.4342 70.8134 42.5627 68.2641 47.2056 63.9617C52.4776 59.0737 55.3808 52.3024 55.3808 44.8919C55.3808 39.667 53.9633 34.09 51.17 28.31L51.1662 28.3139ZM26.1251 27.8431C26.1251 26.9703 26.8263 26.2622 27.6904 26.2622C28.5546 26.2622 29.2557 26.9703 29.2557 27.8431C29.2557 28.7158 28.5546 29.4239 27.6904 29.4239C26.8263 29.4239 26.1251 28.7158 26.1251 27.8431ZM29.7712 67.0431V57.045L37.8744 48.8612C38.5793 49.1751 39.3563 49.3512 40.175 49.3512C43.3321 49.3512 45.9018 46.756 45.9018 43.5675C45.9018 40.3789 43.3321 37.7837 40.175 37.7837C37.0178 37.7837 34.4481 40.3789 34.4481 43.5675C34.4481 44.3943 34.6225 45.1789 34.9333 45.8909L29.775 51.1005V33.2325C31.905 32.3904 33.421 30.2928 33.421 27.8469C33.421 24.6584 30.8513 22.0632 27.6942 22.0632C24.5371 22.0632 21.9674 24.6584 21.9674 27.8469C21.9674 30.2966 23.4834 32.3904 25.6134 33.2325V51.1005L20.4551 45.8909C20.7659 45.1789 20.9403 44.3943 20.9403 43.5675C20.9403 40.3789 18.3706 37.7837 15.2134 37.7837C12.0563 37.7837 9.4866 40.3789 9.4866 43.5675C9.4866 46.756 12.0563 49.3512 15.2134 49.3512C16.0321 49.3512 16.8091 49.1751 17.514 48.8612L25.6172 57.045V67.0431C13.254 66.1091 4.17289 56.9033 4.17289 44.8957C4.17289 34.4421 10.851 24.0306 16.4528 17.1368C20.963 11.5828 25.5301 7.35694 27.698 5.45072C29.8697 7.35694 34.433 11.5866 38.9432 17.1368C44.5449 24.0306 51.2231 34.4421 51.2231 44.8957C51.2231 56.9033 42.142 66.1129 29.7788 67.0431H29.7712ZM38.6097 43.5636C38.6097 42.6909 39.3108 41.9828 40.175 41.9828C41.0391 41.9828 41.7403 42.6909 41.7403 43.5636C41.7403 44.4364 41.0391 45.1445 40.175 45.1445C39.3108 45.1445 38.6097 44.4364 38.6097 43.5636ZM16.7712 43.5636C16.7712 44.4364 16.07 45.1445 15.2058 45.1445C14.3417 45.1445 13.6405 44.4364 13.6405 43.5636C13.6405 42.6909 14.3417 41.9828 15.2058 41.9828C16.07 41.9828 16.7712 42.6909 16.7712 43.5636Z" fill="white"/>
<path d="M98.9555 47.9617H77.9319C78.2351 49.8335 79.0462 51.3225 80.3651 52.4287C81.6841 53.5349 83.3669 54.0861 85.4097 54.0861C87.8543 54.0861 89.9578 53.2249 91.7126 51.4948L97.2272 54.1091C95.8514 56.0766 94.2065 57.5349 92.2887 58.4804C90.371 59.4259 88.0931 59.8967 85.4552 59.8967C81.3657 59.8967 78.0304 58.5952 75.4607 55.9885C72.8873 53.3818 71.6024 50.1168 71.6024 46.1971C71.6024 42.2775 72.8835 38.8402 75.4494 36.1876C78.0153 33.5311 81.2293 32.2067 85.0989 32.2067C89.2074 32.2067 92.5465 33.5349 95.1199 36.1876C97.6934 38.844 98.9783 42.3503 98.9783 46.7062L98.9555 47.9656V47.9617ZM92.41 42.756C91.978 41.2861 91.1252 40.0919 89.8517 39.1732C88.5782 38.2546 87.1039 37.7952 85.4211 37.7952C83.5981 37.7952 81.9949 38.312 80.6191 39.3455C79.7549 39.9924 78.9552 41.1292 78.2161 42.7598H92.4062L92.41 42.756Z" fill="#FFEDCC"/>
<path d="M105.164 43.0239H117.341V49.1713H105.164V43.0239Z" fill="#FFEDCC"/>
<path d="M157.994 29.8679L153.302 34.3885C150.107 30.978 146.514 29.2746 142.523 29.2746C139.153 29.2746 136.314 30.4383 134.01 32.7656C131.702 35.0928 130.55 37.9598 130.55 41.3665C130.55 43.7397 131.061 45.8488 132.081 47.69C133.104 49.5311 134.548 50.978 136.417 52.0268C138.285 53.0756 140.362 53.6038 142.644 53.6038C144.592 53.6038 146.373 53.2364 147.984 52.5014C149.595 51.7665 151.369 50.4306 153.302 48.49L157.854 53.2861C155.25 55.8546 152.786 57.6345 150.47 58.6258C148.155 59.6172 145.509 60.1148 142.538 60.1148C137.057 60.1148 132.57 58.3579 129.079 54.8479C125.588 51.3378 123.841 46.8402 123.841 41.3512C123.841 37.799 124.637 34.645 126.225 31.8852C127.817 29.1254 130.091 26.9053 133.059 25.2287C136.023 23.5522 139.214 22.7101 142.636 22.7101C145.543 22.7101 148.344 23.3301 151.039 24.5703C153.73 25.8105 156.053 27.5751 158.001 29.8641L157.994 29.8679Z" fill="#FFEDCC"/>
<path d="M180.515 22.7139C185.502 22.7139 189.793 24.5397 193.382 28.1837C196.971 31.8316 198.768 36.2794 198.768 41.5235C198.768 46.7675 196.998 51.1196 193.454 54.7177C189.91 58.3158 185.616 60.1148 180.56 60.1148C175.504 60.1148 170.869 58.266 167.367 54.5723C163.865 50.8785 162.114 46.488 162.114 41.401C162.114 37.9943 162.928 34.8632 164.562 32.0077C166.196 29.1522 168.435 26.8861 171.289 25.2172C174.143 23.5483 177.217 22.7101 180.511 22.7101L180.515 22.7139ZM180.442 29.3474C177.179 29.3474 174.435 30.4919 172.21 32.7847C169.986 35.0775 168.875 37.9904 168.875 41.5235C168.875 45.4622 170.274 48.578 173.075 50.867C175.25 52.6584 177.744 53.5541 180.56 53.5541C183.744 53.5541 186.454 52.3904 188.694 50.067C190.933 47.7435 192.052 44.8766 192.052 41.4737C192.052 38.0708 190.922 35.2153 188.667 32.8689C186.412 30.5225 183.668 29.3474 180.435 29.3474H180.442Z" fill="#FFEDCC"/>
<path d="M221.747 22.7139C226.735 22.7139 231.025 24.5397 234.614 28.1837C238.203 31.8316 240 36.2794 240 41.5235C240 46.7675 238.23 51.1196 234.686 54.7177C231.143 58.3158 226.848 60.1148 221.792 60.1148C216.736 60.1148 212.101 58.266 208.599 54.5723C205.097 50.8785 203.346 46.488 203.346 41.401C203.346 37.9943 204.161 34.8632 205.794 32.0077C207.428 29.1522 209.668 26.8861 212.522 25.2172C215.376 23.5483 218.45 22.7101 221.743 22.7101L221.747 22.7139ZM221.675 29.3474C218.412 29.3474 215.668 30.4919 213.443 32.7847C211.218 35.0775 210.108 37.9904 210.108 41.5235C210.108 45.4622 211.506 48.578 214.307 50.867C216.482 52.6584 218.976 53.5541 221.792 53.5541C224.976 53.5541 227.686 52.3904 229.926 50.067C232.166 47.7435 233.284 44.8766 233.284 41.4737C233.284 38.0708 232.154 35.2153 229.899 32.8689C227.644 30.5225 224.9 29.3474 221.667 29.3474H221.675Z" fill="#FFEDCC"/>
</svg>
