<svg width="112" height="37" viewBox="0 0 112 37" fill="none" xmlns="http://www.w3.org/2000/svg">
<g clip-path="url(#clip0_99_6060)">
<path d="M23.8776 13.0952C22.8535 10.9956 21.4297 8.8322 19.6468 6.66177C16.6294 2.98656 13.6544 0.587751 13.5289 0.486842L12.9222 0L12.3155 0.486842C12.1899 0.587751 9.21498 2.98655 6.19756 6.66C4.4147 8.83043 2.99089 10.9955 1.9668 13.0934C0.661497 15.7666 0 18.3477 0 20.7625C0 24.1899 1.35483 27.3216 3.81511 29.5823C5.98001 31.5722 8.84001 32.753 11.9512 32.9548V36.0476H13.8932V32.9548C17.0026 32.7512 19.8626 31.5722 22.0293 29.5823C24.4896 27.3216 25.8444 24.1899 25.8444 20.7625C25.8444 18.346 25.1829 15.7666 23.8793 13.0934L23.8776 13.0952ZM12.1917 12.8774C12.1917 12.4738 12.5189 12.1463 12.9222 12.1463C13.3255 12.1463 13.6527 12.4738 13.6527 12.8774C13.6527 13.2811 13.3255 13.6086 12.9222 13.6086C12.5189 13.6086 12.1917 13.2811 12.1917 12.8774ZM13.8932 31.0074V26.3833L17.6747 22.5983C18.0037 22.7435 18.3663 22.8249 18.7483 22.8249C20.2217 22.8249 21.4208 21.6246 21.4208 20.15C21.4208 18.6753 20.2217 17.475 18.7483 17.475C17.275 17.475 16.0758 18.6753 16.0758 20.15C16.0758 20.5323 16.1572 20.8953 16.3022 21.2245L13.895 23.634V15.37C14.889 14.9806 15.5965 14.0104 15.5965 12.8792C15.5965 11.4045 14.3973 10.2042 12.924 10.2042C11.4506 10.2042 10.2514 11.4045 10.2514 12.8792C10.2514 14.0122 10.9589 14.9806 11.9529 15.37V23.634L9.54573 21.2245C9.69076 20.8953 9.77212 20.5323 9.77212 20.15C9.77212 18.6753 8.57294 17.475 7.0996 17.475C5.62627 17.475 4.42708 18.6753 4.42708 20.15C4.42708 21.6246 5.62627 22.8249 7.0996 22.8249C7.48164 22.8249 7.84423 22.7435 8.17321 22.5983L11.9547 26.3833V31.0074C6.18518 30.5755 1.94735 26.3178 1.94735 20.7643C1.94735 15.9295 5.06382 11.1142 7.67797 7.92579C9.78273 5.35703 11.914 3.40258 12.9257 2.52096C13.9392 3.40258 16.0687 5.3588 18.1735 7.92579C20.7876 11.1142 23.9041 15.9295 23.9041 20.7643C23.9041 26.3178 19.6663 30.5772 13.8968 31.0074H13.8932ZM18.0178 20.1482C18.0178 19.7445 18.3451 19.417 18.7483 19.417C19.1516 19.417 19.4788 19.7445 19.4788 20.1482C19.4788 20.5518 19.1516 20.8793 18.7483 20.8793C18.3451 20.8793 18.0178 20.5518 18.0178 20.1482ZM7.82654 20.1482C7.82654 20.5518 7.49933 20.8793 7.09606 20.8793C6.6928 20.8793 6.36559 20.5518 6.36559 20.1482C6.36559 19.7445 6.6928 19.417 7.09606 19.417C7.49933 19.417 7.82654 19.7445 7.82654 20.1482Z" fill="#2F4A4D"/>
<path d="M46.1792 22.1823H36.3682C36.5097 23.048 36.8882 23.7367 37.5037 24.2483C38.1192 24.7599 38.9045 25.0148 39.8578 25.0148C40.9987 25.0148 41.9803 24.6165 42.7992 23.8163L45.3727 25.0255C44.7306 25.9354 43.963 26.6099 43.068 27.0472C42.1731 27.4845 41.1101 27.7022 39.8791 27.7022C37.9706 27.7022 36.4142 27.1003 35.215 25.8947C34.014 24.6891 33.4144 23.179 33.4144 21.3662C33.4144 19.5534 34.0123 17.9636 35.2097 16.7367C36.4071 15.5081 37.907 14.8956 39.7128 14.8956C41.6301 14.8956 43.1883 15.5099 44.3893 16.7367C45.5902 17.9654 46.1898 19.587 46.1898 21.6016L46.1792 22.1841V22.1823ZM43.1246 19.7746C42.923 19.0948 42.5251 18.5425 41.9308 18.1176C41.3365 17.6927 40.6485 17.4803 39.8631 17.4803C39.0124 17.4803 38.2642 17.7193 37.6222 18.1973C37.2189 18.4965 36.8457 19.0223 36.5008 19.7764H43.1229L43.1246 19.7746Z" fill="#00735E"/>
<path d="M49.0763 19.8986H54.7592V22.7417H49.0763V19.8986Z" fill="#00735E"/>
<path d="M73.7304 13.8139L71.5408 15.9047C70.0498 14.3273 68.373 13.5395 66.5106 13.5395C64.9382 13.5395 63.6134 14.0777 62.538 15.1541C61.4609 16.2304 60.9232 17.5564 60.9232 19.132C60.9232 20.2296 61.162 21.2051 61.6378 22.0566C62.1153 22.9081 62.7892 23.5773 63.6612 24.0624C64.5332 24.5475 65.5024 24.7918 66.5672 24.7918C67.4763 24.7918 68.3076 24.6218 69.0593 24.2819C69.811 23.942 70.6387 23.3242 71.5408 22.4266L73.665 24.6448C72.4499 25.8327 71.3002 26.6559 70.2196 27.1144C69.1389 27.573 67.9043 27.8031 66.5176 27.8031C63.9601 27.8031 61.8659 26.9905 60.237 25.3671C58.608 23.7437 57.7926 21.6636 57.7926 19.1249C57.7926 17.482 58.164 16.0233 58.9051 14.7469C59.648 13.4705 60.7092 12.4437 62.0941 11.6683C63.4772 10.8929 64.9665 10.5034 66.5636 10.5034C67.9202 10.5034 69.2273 10.7902 70.4849 11.3638C71.7406 11.9374 72.8249 12.7535 73.734 13.8121L73.7304 13.8139Z" fill="#00735E"/>
<path d="M84.24 10.5052C86.5677 10.5052 88.5698 11.3496 90.2448 13.035C91.9198 14.7221 92.7581 16.7792 92.7581 19.2046C92.7581 21.6299 91.9322 23.6428 90.2784 25.3069C88.6247 26.971 86.6207 27.8031 84.2613 27.8031C81.9018 27.8031 79.7387 26.948 78.1044 25.2397C76.4701 23.5313 75.653 21.5007 75.653 19.1479C75.653 17.5723 76.0332 16.1242 76.7955 14.8035C77.5579 13.4829 78.6032 12.4348 79.935 11.663C81.2668 10.8911 82.7013 10.5034 84.2383 10.5034L84.24 10.5052ZM84.2064 13.5731C82.6836 13.5731 81.403 14.1025 80.3648 15.1629C79.3266 16.2233 78.8083 17.5706 78.8083 19.2046C78.8083 21.0263 79.461 22.4673 80.7681 23.526C81.7833 24.3545 82.9471 24.7687 84.2613 24.7687C85.747 24.7687 87.0116 24.2306 88.0569 23.156C89.1022 22.0814 89.624 20.7554 89.624 19.1816C89.624 17.6077 89.0969 16.2871 88.0445 15.2019C86.9922 14.1166 85.7116 13.5731 84.2029 13.5731H84.2064Z" fill="#00735E"/>
<path d="M103.482 10.5052C105.809 10.5052 107.812 11.3496 109.487 13.035C111.162 14.7221 112 16.7792 112 19.2046C112 21.6299 111.174 23.6428 109.52 25.3069C107.866 26.971 105.863 27.8031 103.503 27.8031C101.144 27.8031 98.9805 26.948 97.3462 25.2397C95.7119 23.5313 94.8948 21.5007 94.8948 19.1479C94.8948 17.5723 95.275 16.1242 96.0374 14.8035C96.7997 13.4829 97.845 12.4348 99.1768 11.663C100.509 10.8911 101.943 10.5034 103.48 10.5034L103.482 10.5052ZM103.448 13.5731C101.925 13.5731 100.645 14.1025 99.6066 15.1629C98.5684 16.2233 98.0501 17.5706 98.0501 19.2046C98.0501 21.0263 98.7028 22.4673 100.01 23.526C101.025 24.3545 102.189 24.7687 103.503 24.7687C104.989 24.7687 106.253 24.2306 107.299 23.156C108.344 22.0814 108.866 20.7554 108.866 19.1816C108.866 17.6077 108.339 16.2871 107.286 15.2019C106.234 14.1166 104.953 13.5731 103.445 13.5731H103.448Z" fill="#00735E"/>
</g>
<defs>
<clipPath id="clip0_99_6060">
<rect width="112" height="37" fill="white"/>
</clipPath>
</defs>
</svg>
